<?xml version="1.0" standalone="no"?><!DOCTYPE svg PUBLIC "-//W3C//DTD SVG 1.1//EN" "http://www.w3.org/Graphics/SVG/1.1/DTD/svg11.dtd"><svg t="1619161300195" class="icon" viewBox="0 0 1024 1024" version="1.1" xmlns="http://www.w3.org/2000/svg" p-id="5132" xmlns:xlink="http://www.w3.org/1999/xlink" width="200" height="200"><defs><style type="text/css"></style></defs><path d="M220.839506 591.111111l255.802469-119.209876V344L220.839506 463.209877v127.901234z" fill="#DC4E45" p-id="5133"></path><path d="M476.641975 472l-255.802469-119.308642V224.790123l255.802469 119.308642v127.901235z" fill="#FF6B5B" p-id="5134"></path><path d="M220.839506 828.641975l255.802469-119.308642V581.432099l-255.802469 119.308642V828.641975z" fill="#DC4E45" p-id="5135"></path><path d="M476.641975 709.432099l-255.802469-119.308642V462.222222l255.802469 119.308642v127.901235zM476.641975 946.864198l-255.802469-119.308642V699.654321l255.802469 119.308642v127.901235z" fill="#FF6B5B" p-id="5136"></path><path d="M564.148148 467.555556l255.901235-119.308642V220.345679L564.148148 339.654321v127.901235z" fill="#00B2A7" p-id="5137"></path><path d="M820.049383 348.345679L564.148148 229.037037V101.135802l255.901235 119.308642v127.901235z" fill="#6ADDD6" p-id="5138"></path><path d="M564.148148 704.987654L820.049383 585.679012V457.777778L564.148148 577.08642v127.901234z" fill="#00B2A7" p-id="5139"></path><path d="M820.049383 585.777778L564.148148 466.567901V338.567901l255.901235 119.308642v127.901235zM820.049383 823.308642L564.148148 704V576.098765l255.901235 119.308642v127.901235zM465.382716 146.271605H437.530864V118.518519a12.54321 12.54321 0 0 0-24.987654 0v27.950617H385.185185a12.444444 12.444444 0 1 0 0 24.888889h27.851852v27.851852a12.54321 12.54321 0 1 0 24.987654 0v-28.049383h27.851852a12.444444 12.444444 0 0 0 0-24.888889zM970.271605 465.975309h-27.851852v-27.851852a12.54321 12.54321 0 0 0-24.987654 0v27.851852h-27.851852a12.54321 12.54321 0 0 0 0 24.987654h27.851852v27.851852a12.54321 12.54321 0 1 0 24.987654 0v-27.851852h27.851852a12.54321 12.54321 0 0 0 0-24.987654zM144 657.876543h-27.851852v-27.851852a12.444444 12.444444 0 1 0-24.888889 0v27.851852H63.308642a12.54321 12.54321 0 0 0 0 24.987655h27.950617V711.111111a12.444444 12.444444 0 0 0 24.888889 0v-28.246913h27.851852a12.54321 12.54321 0 1 0 0-24.987655zM138.271605 400a25.679012 25.679012 0 1 1-25.679012-25.679012 25.679012 25.679012 0 0 1 25.679012 25.679012zM666.469136 887.802469a25.679012 25.679012 0 1 1-25.679013-25.580247 25.580247 25.580247 0 0 1 25.679013 25.580247zM955.555556 617.481481a25.679012 25.679012 0 1 1-25.679013-25.580246 25.580247 25.580247 0 0 1 25.679013 25.580246z" fill="#6ADDD6" p-id="5140"></path></svg>