<?xml version="1.0" standalone="no"?><!DOCTYPE svg PUBLIC "-//W3C//DTD SVG 1.1//EN" "http://www.w3.org/Graphics/SVG/1.1/DTD/svg11.dtd"><svg t="1619160009384" class="icon" viewBox="0 0 1024 1024" version="1.1" xmlns="http://www.w3.org/2000/svg" p-id="3744" xmlns:xlink="http://www.w3.org/1999/xlink" width="200" height="200"><defs><style type="text/css"></style></defs><path d="M863.09888 942.08H171.14112A84.1984 84.1984 0 0 1 87.04 857.97888V166.02112A84.1984 84.1984 0 0 1 171.14112 81.92h691.95776A84.1984 84.1984 0 0 1 947.2 166.02112v691.95776A84.1984 84.1984 0 0 1 863.09888 942.08zM171.14112 140.12416a25.92256 25.92256 0 0 0-25.89696 25.89696v691.95776a25.92256 25.92256 0 0 0 25.89696 25.89696h691.95776a25.92768 25.92768 0 0 0 25.89696-25.89696V166.02112a25.92256 25.92256 0 0 0-25.89696-25.89696H171.14112z" fill="#ffd300" p-id="3745"></path><path d="M480.35328 696.32a48.03584 48.03584 0 0 1-32.4352-12.6208l-167.26016-154.112a28.82048 28.82048 0 0 1-1.536-40.96 29.3632 29.3632 0 0 1 41.27744-1.536l158.77632 146.26304 231.31136-284.87168a29.34272 29.34272 0 0 1 41.06752-4.38272 28.81536 28.81536 0 0 1 4.41344 40.74496l-238.592 293.83168a47.82592 47.82592 0 0 1-33.63328 17.47456c-1.1264 0.13312-2.26304 0.16896-3.38944 0.16896z" fill="#ffd300" p-id="3746"></path></svg>