<?xml version="1.0" standalone="no"?><!DOCTYPE svg PUBLIC "-//W3C//DTD SVG 1.1//EN" "http://www.w3.org/Graphics/SVG/1.1/DTD/svg11.dtd"><svg t="1616507493491" class="icon" viewBox="0 0 1024 1024" version="1.1" xmlns="http://www.w3.org/2000/svg" p-id="7659" xmlns:xlink="http://www.w3.org/1999/xlink" width="200" height="200"><defs><style type="text/css"></style></defs><path d="M593.6 219.733333a69.226667 69.226667 0 1 0 69.12-69.226666 69.12 69.12 0 0 0-69.12 69.226666z" fill="#ffd300" p-id="7660"></path><path d="M223.36 730.026667m30.186667 0l163.413333 0q30.186667 0 30.186667 30.186666l0 0.106667q0 30.186667-30.186667 30.186667l-163.413333 0q-30.186667 0-30.186667-30.186667l0-0.106667q0-30.186667 30.186667-30.186666Z" fill="#ffd300" p-id="7661"></path><path d="M170.88 838.4m30.186667 0l163.413333 0q30.186667 0 30.186667 30.186667l0 0.106666q0 30.186667-30.186667 30.186667l-163.413333 0q-30.186667 0-30.186667-30.186667l0-0.106666q0-30.186667 30.186667-30.186667Z" fill="#ffd300" p-id="7662"></path><path d="M835.946667 261.653333c-53.333333 69.44-143.893333 82.24-220.906667 39.786667-5.333333-2.88-28.586667-14.72-33.706667-17.6-123.946667-68.16-247.68-41.493333-330.666666 66.346667-35.306667 45.866667 46.293333 89.28 81.173333 43.946666 42.666667-55.68 97.386667-71.786667 157.013333-54.186666-30.506667 49.173333-57.173333 98.026667-94.826666 167.466666S273.066667 632.213333 193.173333 588.8c-57.706667-31.146667-109.76 45.653333-52.266666 76.8a248.533333 248.533333 0 0 0 302.506666-54.08 49.173333 49.173333 0 0 0 7.253334 2.986667c53.333333 17.28 123.306667 63.146667 144.64 79.466666s57.92 99.093333 79.68 140.693334c26.346667 50.56 111.573333 13.76 85.333333-37.013334C736 750.4 694.08 656.213333 661.333333 632.32a817.066667 817.066667 0 0 0-118.72-74.666667Q586.666667 480 633.493333 404.053333c100.8 28.586667 196.586667-5.12 264.746667-93.653333 35.306667-45.866667-27.413333-94.08-62.293333-48.746667z" fill="#ffd300" p-id="7663"></path></svg>