<?xml version="1.0" standalone="no"?><!DOCTYPE svg PUBLIC "-//W3C//DTD SVG 1.1//EN" "http://www.w3.org/Graphics/SVG/1.1/DTD/svg11.dtd"><svg t="1618820101048" class="icon" viewBox="0 0 1024 1024" version="1.1" xmlns="http://www.w3.org/2000/svg" p-id="2400" xmlns:xlink="http://www.w3.org/1999/xlink" width="200" height="200"><defs><style type="text/css"></style></defs><path d="M893.18 191.719c20.24-7.106 41.16 8.769 39.753 30.164l-38.276 581.744c-1.35 20.511-22.53 33.572-41.477 25.576L536.091 695.376 431.374 859.151c-15.935 24.922-54.329 14.003-55.095-15.206l-0.012-0.89V630.433L109.654 522.213c-25.266-10.256-24.662-46.049 0.57-55.616l0.772-0.282zM664.153 453.57L436.08 633.345l-0.001 107.426 58.26-91.114a29.816 29.816 0 0 1 7.794-8.22 30.49 30.49 0 0 1 1.665-2.109l160.356-185.757z" fill="#333333" p-id="2401"></path></svg>